<svg xmlns="http://www.w3.org/2000/svg" viewBox="0 0 456.566 740.599" height="789.973" width="487.004"><defs><filter height="1.091" y="-.046" width="1.165" x="-.082" id="a" color-interpolation-filters="sRGB"><feGaussianBlur stdDeviation="10.131"/></filter></defs><path transform="matrix(1.32865 0 0 1.27546 441.957 -312.21)" d="M-153.217 706.632l9.124 8.49v6.53l-9.884-2.612s.76-3.918-3.041-2.612c-3.802 1.306-19.768 6.53-19.768 6.53l-10.645-3.265-3.801 7.836-7.603 7.184-14.446 4.571 3.04 5.224s3.802-.653 7.604 0 16.727 4.572 16.727 4.572h.76l-4.562 5.877-7.603 3.918-2.28 26.775 1.52 9.795-1.52 4.572s5.321 1.959 8.363.653l13.685-5.878-3.801-5.877 23.57-13.06 9.884-10.45 18.247-4.57 5.322-7.184 1.521-5.225 3.041-2.612-2.28-2.612 8.363-7.183 11.404 1.959 13.686-3.918 22.05-7.184 12.164-9.142 14.446-10.449 12.165-7.183.76-5.878 6.843-2.612-.76-11.101 1.52-14.367s-3.04 1.306-2.28-5.878c.76-7.183 3.801-5.224 3.801-5.224l1.52 3.918 2.282-3.265.76-9.796-3.041-9.142-3.041-5.877 1.52-12.408-3.801-18.285-4.562-5.878-3.041-14.366-6.083-9.143v-10.449l-13.686-7.836-9.884-15.02-9.884-9.142-8.363-7.837-39.537-25.468-19.007-20.898.76-9.795-3.041-3.265-8.364-3.919-6.082-2.612-10.645-14.367-7.603-13.713 6.843-5.225 1.52-7.183 1.521-9.796 3.042-3.918 3.801-7.183h6.843l7.603-5.225 12.165-5.224v-5.224l-1.52-3.266 3.04-6.53 3.042-8.49 12.165-2.612 5.322.653 9.884-5.877 3.042-7.183 9.123-3.919 4.562-7.183-22.81-2.612-18.247-10.449-6.082-2.612v-7.183l-5.322-9.143 9.884-14.367-10.645-4.57-9.124 3.264-9.123-5.224-7.603 3.265-9.124-3.265-6.083-2.612-7.603-8.49-12.925 5.225-5.322 7.836-1.521 5.224h-9.124l-12.165 5.225-4.562-3.266-6.843 4.572-6.082 7.183-9.124-9.142-7.603 3.265-3.041-7.184-13.686 12.408-23.57-7.183-12.165 10.448 11.405 13.061 6.083 13.714 9.123-5.877 5.323 7.183-3.802 13.714 9.124 13.06 26.61 10.45 5.323-9.143 16.727-.653 10.644 7.183.76 5.877-4.561 5.225 10.644.653v6.53l12.165 3.918-5.322 9.143-6.843 9.795-12.925-7.183-10.645 5.877-4.562 2.613-3.801 9.795 26.61 14.367 3.802 4.571 20.529 3.265-.76 10.449 18.247 14.367 3.041 8.49 15.207 14.366 15.966 9.796 2.281 4.571 9.884 20.244 8.364-3.265 11.404 12.408 7.604 1.306v5.224l-9.124 3.918 6.082 7.837 5.323 7.183 7.603 4.572 5.322 3.918-8.364 5.877 2.281 11.755v5.877l-7.603 9.143-2.28 9.142 2.28 6.53 6.843 15.674 1.52 2.612-5.322 12.407 3.802 9.143.76 13.714-2.28 5.224-9.124 1.306-12.926 3.265-7.603 5.878h-14.446l.76 10.448-9.123-5.877-7.603-.653-6.843 5.224v5.878z" fill="#4a3232" fill-rule="evenodd" filter="url(#a)"/><path d="M229.773 591.435l12.123 10.828v8.33l-13.133-3.332s1.01-4.998-4.04-3.332c-5.052 1.666-26.266 8.33-26.266 8.33l-14.142-4.166-5.051 9.996-10.102 9.162-19.194 5.83 4.04 6.664s5.052-.833 10.103 0c5.05.833 22.224 5.83 22.224 5.83h1.01l-6.06 7.496-10.103 4.998-3.03 34.15 2.02 12.494-2.02 5.83s7.07 2.5 11.112.833l18.183-7.496-5.05-7.496 31.315-16.659 13.133-13.327 24.244-5.83 7.072-9.162 2.02-6.664 4.04-3.331-3.03-3.332 11.112-9.162 15.153 2.498 18.184-4.997 29.295-9.162 16.164-11.661 19.193-13.327 16.163-9.162 1.01-7.497 9.092-3.331-1.01-14.16 2.02-18.325s-4.04 1.666-3.03-7.496c1.01-9.162 5.05-6.663 5.05-6.663l2.021 4.997 3.03-4.164 1.01-12.494-4.04-11.661-4.04-7.497 2.02-15.825-5.051-23.322-6.061-7.496-4.041-18.325-8.082-11.66v-13.328l-18.183-9.995-13.133-19.157-13.132-11.661-11.112-9.995-52.53-32.484-25.255-26.654 1.01-12.494-4.04-4.164-11.113-4.998-8.081-3.332-14.143-18.324-10.102-17.492 9.092-6.663 2.02-9.162 2.02-12.494 4.041-4.998 5.051-9.162h9.092l10.102-6.663 16.163-6.664v-6.663l-2.02-4.165 4.04-8.329 4.041-10.828 16.163-3.332 7.072.833 13.132-7.496 4.04-9.162 12.123-4.998 6.061-9.162-30.306-3.332-24.244-13.327-8.082-3.331v-9.162l-7.071-11.661 13.132-18.325-14.142-5.83-12.123 4.164-12.122-6.663-10.102 4.165-12.122-4.165-8.082-3.332-10.102-10.828-17.173 6.664-7.071 9.995-2.02 6.663h-12.123l-16.163 6.664-6.061-4.165-9.092 5.83-8.081 9.163-12.123-11.661-10.102 4.164-4.04-9.162-18.184 15.826-31.316-9.163L23.694 77.52l15.153 16.659 8.081 17.491 12.123-7.496 7.071 9.162-5.05 17.492 12.121 16.658 35.357 13.327 7.072-11.661 22.224-.833 14.142 9.162 1.01 7.497-6.06 6.663 14.142.833v8.33l16.163 4.997-7.071 11.66-9.092 12.495-17.173-9.163-14.143 7.497-6.061 3.331-5.05 12.494 35.356 18.325 5.05 5.83 27.276 4.165-1.01 13.327 24.244 18.324 4.041 10.828 20.204 18.324 21.214 12.494 3.03 5.83 13.133 25.822 11.112-4.165 15.153 15.826 10.102 1.665v6.664l-12.122 4.997 8.081 9.995 7.072 9.163 10.102 5.83 7.071 4.998-11.112 7.496 3.03 14.993v7.496l-10.101 11.661-3.031 11.661 3.03 8.33 9.092 19.99 2.02 3.331-7.07 15.826 5.05 11.66 1.01 17.492-3.03 6.664-12.122 1.666-17.174 4.164-10.102 7.496H258.06l1.01 13.327-12.122-7.496-10.102-.833-9.092 6.663v7.497z" fill="#e92020" fill-rule="evenodd" stroke="#000" stroke-width="7.018" stroke-linecap="round" stroke-linejoin="round"/><path d="M209.284 141.484l-28.037-17.513-28.66 16.656 9.628-29.693-26.253-19.674 33.987-.838 12.434-28.816 11.378 29.176 33.938 1.864-26.955 18.87z" fill="#efe03a"/></svg>