<svg width="207" height="127" fill="none" xmlns="http://www.w3.org/2000/svg"><g filter="url(#filter0_f)"><path fill-rule="evenodd" clip-rule="evenodd" d="M41.679 66.59l-3.056 3.422h-2.351l.94-3.707s1.41.286.94-1.14c-.47-1.425-2.35-7.412-2.35-7.412l1.175-3.992-2.82-1.425-2.586-2.851-1.646-5.417-1.88 1.14s.235 1.426 0 2.851c-.236 1.426-1.646 6.272-1.646 6.272v.285l-2.116-1.71-1.41-2.851-9.638-.855-3.526.57-1.645-.57s-.706 1.995-.235 3.136l2.115 5.132 2.116-1.426 4.701 8.838 3.761 3.706 1.646 6.843 2.586 1.995 1.88.57.94 1.141.94-.855 2.587 3.136-.706 4.276 1.41 5.132 2.587 8.268 3.29 4.561 3.762 5.417 2.585 4.562 2.116.285.94 2.566 3.996-.285 5.172.57s-.47-1.14 2.116-.855c2.585.285 1.88 1.425 1.88 1.425l-1.41.57 1.175.856 3.526.285 3.291-1.141 2.116-1.14 4.466.57 6.582-1.425 2.116-1.711 5.171-1.14 3.291-2.281h3.761l2.821-5.132 5.407-3.706 3.291-3.706 2.821-3.136 9.167-14.826 7.523-7.127 3.526.285 1.175-1.14 1.411-3.137.94-2.28 5.171-3.992 4.937-2.85 1.88 2.565 2.586.57 3.526.57 1.411 1.141 2.585 1.425v2.566l1.881 2.851 1.881 4.562h1.88l1.175-.57 2.351 1.14 3.056 1.14.94 4.562-.235 1.996 2.116 3.706 2.586 1.14 1.41 3.422 2.586 1.71.94-8.553 3.761-6.842.941-2.28h2.585l3.291-1.996 5.172 3.706 1.645-3.992-1.175-3.42 1.881-3.422-1.176-2.851 1.176-3.421.94-2.281 3.056-2.85-1.881-4.848-2.821-1.995-1.88-.57v-3.422l-1.881-4.561 1.176-1.71-1.646-2.567-2.586-2.28 3.291-3.422-1.175-2.85 2.586-1.141-4.467-5.132 2.586-8.838-3.761-4.562-4.701 4.277-4.937 2.28 2.116 3.422-2.586 1.996-4.936-1.426-4.702 3.421-3.761 9.979 3.291 1.995.235 6.273-2.586 3.991-2.115.285-1.881-1.71-.235 3.99h-2.351l-1.41 4.563-3.291-1.996-3.526-2.566 2.586-4.847-2.116-3.991-.94-1.71-3.526-1.426-5.172 9.978-1.645 1.426-1.176 7.697-3.761-.285-5.171 6.843-3.056 1.14-5.172 5.702-3.526 5.987-1.645.855-7.288 3.707 1.176 3.136-4.467 4.276-.47 2.851h-1.88l-1.411-3.42-2.82 2.28-2.586 1.995-1.646 2.852-1.41 1.995-2.116-3.136-4.231.855h-2.116l-3.29-2.85-3.292-.856-2.35.855-5.642 2.566-.94.57-4.467-1.995-3.29 1.425-4.937.285-1.88-.855-.47-3.421-1.176-4.847-2.116-2.85v-5.418l-3.761.286 2.116-3.422.235-2.85-1.88-2.567h-2.117l-2.82.57z" fill="#4A3232"/></g><path fill-rule="evenodd" clip-rule="evenodd" d="M41.013 64.16l-3.056 3.421h-2.351l.94-3.706s1.41.285.94-1.14c-.47-1.426-2.35-7.413-2.35-7.413l1.175-3.991-2.82-1.426-2.586-2.85-1.646-5.418-1.88 1.14s.235 1.426 0 2.852c-.236 1.425-1.646 6.272-1.646 6.272v.285l-2.116-1.71-1.41-2.852-9.638-.855-3.526.57-1.645-.57s-.706 1.996-.235 3.136l2.115 5.132 2.116-1.425 4.701 8.838 3.761 3.706 1.646 6.842 2.586 1.996 1.88.57.94 1.14.94-.855 2.587 3.136-.706 4.277 1.41 5.132 2.586 8.267 3.291 4.562 3.762 5.417 2.585 4.562 2.116.285.94 2.566 3.997-.286 5.171.571s-.47-1.141 2.116-.856c2.585.285 1.88 1.426 1.88 1.426l-1.41.57 1.175.855 3.526.285 3.291-1.14 2.116-1.14 4.466.57 6.582-1.426 2.116-1.71 5.171-1.141 3.291-2.28h3.761l2.821-5.132 5.407-3.706 3.291-3.707 2.821-3.136 9.167-14.825 7.523-7.127 3.526.285 1.175-1.14 1.411-3.137.94-2.28 5.171-3.992 4.937-2.851 1.88 2.566 2.586.57 3.526.57 1.411 1.14 2.585 1.426v2.566l1.881 2.851 1.881 4.562h1.88l1.175-.57 2.351 1.14 3.056 1.14.94 4.562-.235 1.995 2.116 3.707 2.586 1.14 1.41 3.421 2.586 1.71.94-8.552 3.761-6.842.941-2.281h2.585l3.291-1.996 5.172 3.706 1.645-3.991-1.175-3.421 1.881-3.421-1.176-2.851 1.176-3.422.94-2.28 3.056-2.851-1.881-4.847-2.821-1.996-1.88-.57v-3.421l-1.881-4.562 1.176-1.71-1.646-2.566-2.586-2.281 3.291-3.421-1.175-2.851 2.586-1.14-4.467-5.132 2.586-8.838L186.051 6l-4.701 4.277-4.937 2.28 2.116 3.421-2.586 1.996-4.936-1.425-4.702 3.42-3.761 9.98 3.291 1.995.235 6.272-2.586 3.992-2.115.285-1.881-1.71-.235 3.99h-2.351l-1.41 4.562-3.291-1.996-3.526-2.566 2.586-4.846-2.116-3.992-.94-1.71-3.526-1.426-5.172 9.979-1.645 1.425-1.176 7.698-3.761-.285-5.171 6.842-3.056 1.14-5.172 5.703L116 71.288l-1.645.855-7.288 3.706 1.176 3.136-4.467 4.277-.47 2.85h-1.88l-1.411-3.42-2.82 2.28-2.586 1.996-1.646 2.851-1.41 1.996-2.116-3.136-4.231.855H83.09l-3.29-2.851-3.292-.855-2.35.855-5.642 2.566-.94.57-4.467-1.996-3.29 1.426-4.937.285-1.88-.855-.47-3.422-1.176-4.846-2.116-2.851v-5.417l-3.761.285 2.116-3.421.235-2.851-1.88-2.566h-2.117l-2.82.57z" fill="#E92020" stroke="#000" stroke-width="1.981" stroke-linecap="round" stroke-linejoin="round"/><path d="M167.998 58.378l4.942-7.913-4.701-8.088 8.381 2.717 5.552-7.41.237 9.592 8.132 3.51-8.234 3.21-.526 9.579-5.326-7.608-8.457 2.41z" fill="#EFE03A"/><defs><filter id="filter0_f" x=".222" y=".986" width="206.397" height="125.507" filterUnits="userSpaceOnUse" color-interpolation-filters="sRGB"><feFlood flood-opacity="0" result="BackgroundImageFix"/><feBlend in="SourceGraphic" in2="BackgroundImageFix" result="shape"/><feGaussianBlur stdDeviation="3.722" result="effect1_foregroundBlur"/></filter></defs></svg>